# xmcd
#
# Track frame offsets:
#	150
#	10928
#	26671
#	38350
#	50786
#	63729
#	74680
#	85145
#	104906
#	116696
#	129506
#	140017
#	150798
#	163009
#	176829
#	188380
#	199288
#	211670
#	222267
#	231335
#	241876
#	254456
#	269450
#
# Disc length: 3671 seconds
#
# Revision: 1
# Processed by: cddbd v1.4PL0 Copyright (c) Steve Scherf et al.
# Submitted via: CDmax 1.8
#
DISCID=540e5517
DTITLE=Various Artist - Shamrock Classic Country Mix vol. 2
DYEAR=1900
DGENRE=Country
TTITLE0=You've Got To Live Your Religion Every Day
TTITLE1=Thank God For My Christian Home
TTITLE2=I Walk The Line - Johnny Cash
TTITLE3=Red Roses For A Blue Lady
TTITLE4=Cross the Brazos at Waco - Billy Walker
TTITLE5=Little Black Book - Jimmy Dean
TTITLE6=They Call Me The Man With A Plan
TTITLE7=El Paso - Marty Robbins
TTITLE8=Wabash Cannonball - Roy Acuff
TTITLE9=North To Alaska - Johnny Horton
TTITLE10=Blue Suede Shoes
TTITLE11=May The Bird Of Paradise Fly Up Your Nose
TTITLE12=Release Me
TTITLE13=Saginaw, Michigan - Lefty Frizzell
TTITLE14=Laura (What He's Got That I Ain't Got)
TTITLE15=Pick Me Up On Your Way Down - Rick Roberts
TTITLE16=I'm My Own Grandpa
TTITLE17=Orange Blossom Special
TTITLE18=If You Can't Bite, Don't Growl
TTITLE19=Flowers On The Wall - Statler Brothers
TTITLE20=Jackson - Johnny Cash and June Carter
TTITLE21=The Great Judgment Morning - Roy Acuff
TTITLE22=Judgment Is Surely Coming
EXTD=
EXTT0=
EXTT1=
EXTT2=
EXTT3=
EXTT4=
EXTT5=
EXTT6=
EXTT7=
EXTT8=
EXTT9=
EXTT10=
EXTT11=
EXTT12=
EXTT13=
EXTT14=
EXTT15=
EXTT16=
EXTT17=
EXTT18=
EXTT19=
EXTT20=
EXTT21=
EXTT22=
PLAYORDER=
